<svg width="20" height="20" viewBox="0 0 20 20" fill="none" xmlns="http://www.w3.org/2000/svg">
<path d="M19.9453 5.88201C19.8984 4.81933 19.7266 4.08875 19.4804 3.45569C19.2265 2.78372 18.8358 2.1821 18.3239 1.68197C17.8237 1.17406 17.2182 0.779388 16.554 0.5294C15.9172 0.283228 15.1905 0.11138 14.1278 0.0645264C13.0572 0.0137047 12.7173 0.00195312 10.0019 0.00195312C7.28657 0.00195312 6.94669 0.0137047 5.88005 0.0605583C4.81737 0.107412 4.08679 0.279412 3.45389 0.525432C2.78176 0.779388 2.18014 1.17009 1.68001 1.68197C1.1721 2.1821 0.777586 2.78768 0.527446 3.45188C0.281274 4.08875 0.109427 4.81536 0.0625732 5.87804C0.0117515 6.94865 0 7.28853 0 10.0039C0 12.7193 0.0117515 13.0592 0.0586051 14.1258C0.105459 15.1885 0.277459 15.9191 0.523631 16.5521C0.777586 17.2241 1.1721 17.8257 1.68001 18.3258C2.18014 18.8338 2.78573 19.2284 3.44992 19.4784C4.08679 19.7246 4.81341 19.8964 5.87623 19.9433C6.94273 19.9903 7.28276 20.0019 9.99813 20.0019C12.7135 20.0019 13.0534 19.9903 14.12 19.9433C15.1827 19.8964 15.9133 19.7246 16.5462 19.4784C17.8903 18.9587 18.953 17.8961 19.4726 16.5521C19.7186 15.9152 19.8906 15.1885 19.9375 14.1258C19.9844 13.0592 19.9961 12.7193 19.9961 10.0039C19.9961 7.28853 19.9921 6.94865 19.9453 5.88201ZM18.1442 14.0477C18.1012 15.0244 17.9371 15.5519 17.8004 15.9035C17.4643 16.7748 16.7728 17.4663 15.9015 17.8024C15.5499 17.9391 15.0186 18.1032 14.0457 18.1461C12.9908 18.1931 12.6744 18.2047 10.0059 18.2047C7.33739 18.2047 7.01705 18.1931 5.96597 18.1461C4.98922 18.1032 4.46177 17.9391 4.11014 17.8024C3.67656 17.6421 3.28189 17.3882 2.96154 17.0561C2.62945 16.7318 2.37549 16.3411 2.21524 15.9075C2.0785 15.5558 1.91443 15.0244 1.87155 14.0516C1.82454 12.9967 1.81294 12.6802 1.81294 10.0117C1.81294 7.34317 1.82454 7.02283 1.87155 5.9719C1.91443 4.99515 2.0785 4.4677 2.21524 4.11607C2.37549 3.68233 2.62945 3.28781 2.96551 2.96731C3.28967 2.63522 3.68037 2.38126 4.11411 2.22117C4.46574 2.08442 4.99716 1.92036 5.96994 1.87732C7.02483 1.83047 7.34136 1.81871 10.0097 1.81871C12.6822 1.81871 12.9986 1.83047 14.0497 1.87732C15.0264 1.92036 15.5539 2.08442 15.9055 2.22117C16.3391 2.38126 16.7337 2.63522 17.0541 2.96731C17.3862 3.29163 17.6401 3.68233 17.8004 4.11607C17.9371 4.4677 18.1012 4.99896 18.1442 5.9719C18.1911 7.02679 18.2028 7.34317 18.2028 10.0117C18.2028 12.6802 18.1911 12.9928 18.1442 14.0477Z" fill="#789384"/>
<path d="M10.002 4.86618C7.16556 4.86618 4.86424 7.16735 4.86424 10.0039C4.86424 12.8405 7.16556 15.1416 10.002 15.1416C12.8385 15.1416 15.1397 12.8405 15.1397 10.0039C15.1397 7.16735 12.8385 4.86618 10.002 4.86618ZM10.002 13.3366C8.16185 13.3366 6.66925 11.8442 6.66925 10.0039C6.66925 8.16363 8.16185 6.67119 10.002 6.67119C11.8422 6.67119 13.3347 8.16363 13.3347 10.0039C13.3347 11.8442 11.8422 13.3366 10.002 13.3366Z" fill="#789384"/>
<path d="M16.5424 4.66304C16.5424 5.3254 16.0053 5.86246 15.3428 5.86246C14.6805 5.86246 14.1434 5.3254 14.1434 4.66304C14.1434 4.00052 14.6805 3.46361 15.3428 3.46361C16.0053 3.46361 16.5424 4.00052 16.5424 4.66304Z" fill="#789384"/>
</svg>
