<svg width="12" height="20" viewBox="0 0 12 20" fill="none" xmlns="http://www.w3.org/2000/svg">
<path fill-rule="evenodd" clip-rule="evenodd" d="M5.98392 10.3431C3.04767 10.3431 0.609054 7.99718 0.609054 5.2204C0.609054 2.34785 3.04767 0.00195312 5.98392 0.00195312C9.01973 0.00195312 11.3588 2.34785 11.3588 5.2204C11.3588 7.99718 9.01973 10.3431 5.98392 10.3431ZM5.98392 3.01812C4.73973 3.01812 3.79416 4.02351 3.79416 5.2204C3.79416 6.41729 4.73973 7.3269 5.98392 7.3269C7.27788 7.3269 8.17367 6.41729 8.17367 5.2204C8.17367 4.02351 7.27788 3.01812 5.98392 3.01812ZM8.12392 14.604L11.1597 17.4287C11.7569 18.051 11.7569 18.9607 11.1597 19.5352C10.5127 20.1575 9.51739 20.1575 9.01973 19.5352L5.98392 16.6627L3.04767 19.5352C2.74905 19.8224 2.3509 19.966 1.90302 19.966C1.55465 19.966 1.1565 19.8224 0.808131 19.5352C0.210931 18.9607 0.210931 18.051 0.808131 17.4287L3.8937 14.604C2.74905 14.2689 1.70395 13.838 0.708593 13.2635C-0.0379007 12.8805 -0.187223 11.923 0.21093 11.2048C0.708592 10.4867 1.60441 10.2952 2.40068 10.774C4.59044 12.0666 7.37742 12.0666 9.56718 10.774C10.3635 10.2952 11.309 10.4867 11.7569 11.2048C12.2048 11.923 12.0058 12.8805 11.309 13.2635C10.3635 13.838 9.26856 14.2689 8.12392 14.604Z" fill="#789384"/>
</svg>
