<svg width="20" height="16" viewBox="0 0 20 16" fill="none" xmlns="http://www.w3.org/2000/svg">
<path d="M19.9961 1.89639C19.2606 2.21719 18.4705 2.43395 17.6399 2.53192C18.4872 2.03252 19.1373 1.24006 19.4438 0.29674C18.6511 0.759729 17.7729 1.09613 16.8383 1.27647C16.0896 0.492687 15.0238 0.00195312 13.8435 0.00195312C11.5781 0.00195312 9.74065 1.81056 9.74065 4.04227C9.74065 4.35787 9.77765 4.66479 9.84635 4.96131C6.43492 4.79224 3.41281 3.18392 1.38868 0.740655C1.03635 1.3389 0.833758 2.03252 0.833758 2.77122C0.833758 4.17232 1.55868 5.40956 2.65883 6.13352C1.98588 6.11185 1.35344 5.93064 0.800287 5.62805V5.68007C0.800287 7.63694 2.21401 9.26954 4.09193 9.64062C3.74664 9.73253 3.38463 9.78108 3.01116 9.78108C2.74691 9.78108 2.48883 9.7568 2.23867 9.70999C2.761 11.314 4.27602 12.4827 6.07202 12.5139C4.66711 13.5977 2.89753 14.2436 0.97557 14.2436C0.644381 14.2436 0.317595 14.2246 -0.00390625 14.1873C1.81235 15.3343 3.96861 16.002 6.28518 16.002C13.8338 16.002 17.9605 9.84784 17.9605 4.51046C17.9605 4.33706 17.9561 4.16192 17.9482 3.98851C18.7497 3.41801 19.4456 2.70793 19.9943 1.89899L19.9961 1.89639Z" fill="#789384"/>
</svg>
