<svg width="20" height="12" viewBox="0 0 20 12" fill="none" xmlns="http://www.w3.org/2000/svg">
<path fill-rule="evenodd" clip-rule="evenodd" d="M2.93484 0.0632187H0.746411C0.121147 0.0632187 -0.00390625 0.363346 -0.00390625 0.688483C-0.00390625 1.26373 0.746411 4.13994 3.44755 7.94155C5.26082 10.5301 7.8119 11.9432 10.1254 11.9432C11.5135 11.9432 11.6885 11.6306 11.6885 11.0929V9.12955C11.6885 8.50429 11.8136 8.37924 12.2638 8.37924C12.5889 8.37924 13.1392 8.5418 14.4397 9.79233C15.9278 11.2805 16.1654 11.9432 17.0033 11.9432H19.1917C19.817 11.9432 20.1296 11.6306 19.942 11.0179C19.7545 10.3926 19.0416 9.51722 18.1038 8.45427C17.6035 7.84151 16.8282 7.20374 16.6031 6.8786C16.278 6.45342 16.353 6.26584 16.6031 5.90319C16.6031 5.90319 19.2667 2.1516 19.5419 0.863558C19.6794 0.400862 19.5419 0.0632187 18.8791 0.0632187H16.6907C16.486 0.0509802 16.2829 0.105256 16.1116 0.217944C15.9403 0.330632 15.81 0.495691 15.7403 0.688483C15.7403 0.688483 14.6148 3.38963 13.0516 5.15287C12.5389 5.66559 12.3013 5.82816 12.0262 5.82816C11.9011 5.82816 11.6885 5.66559 11.6885 5.20289V0.863558C11.6885 0.313325 11.526 0.0632187 11.0633 0.0632187H7.62432C7.27417 0.0632187 7.06158 0.313325 7.06158 0.56343C7.06158 1.08865 7.86192 1.21371 7.93695 2.68933V5.91569C7.93695 6.6285 7.8119 6.75355 7.53678 6.75355C6.78647 6.75355 4.9857 4.0274 3.91025 0.913579C3.71016 0.313325 3.49757 0.0632187 2.93484 0.0632187Z" fill="#789384"/>
</svg>
