<svg width="20" height="14" viewBox="0 0 20 14" fill="none" xmlns="http://www.w3.org/2000/svg">
<path d="M19.584 2.19117C19.3536 1.33435 18.678 0.658937 17.8213 0.428224C16.2563 0 9.99587 0 9.99587 0C9.99587 0 3.73572 0 2.17066 0.411988C1.33045 0.642457 0.638429 1.33448 0.40796 2.19117C-0.00390625 3.75611 -0.00390625 7.0016 -0.00390625 7.0016C-0.00390625 7.0016 -0.00390625 10.2634 0.40796 11.812C0.638673 12.6687 1.31397 13.3441 2.17078 13.5749C3.7522 14.0032 9.99611 14.0032 9.99611 14.0032C9.99611 14.0032 16.2563 14.0032 17.8213 13.5912C18.6781 13.3606 19.3536 12.6852 19.5843 11.8285C19.996 10.2634 19.996 7.01808 19.996 7.01808C19.996 7.01808 20.0125 3.75611 19.584 2.19117ZM8.0027 9.9999V4.0033L13.2085 7.0016L8.0027 9.9999Z" fill="#789384"/>
</svg>
